<mxfile host="app.diagrams.net" modified="2023-11-17T04:17:57.034Z" agent="Mozilla/5.0 (Windows NT 10.0; Win64; x64) AppleWebKit/537.36 (KHTML, like Gecko) Chrome/119.0.0.0 Safari/537.36" etag="ulPRvZ81GZRgHGAdwEL-" version="22.1.2" type="device" pages="3">
  <diagram name="PÃ¡gina-1" id="GHjbAym7o5mRyXtKowVg">
    <mxGraphModel dx="878" dy="486" grid="1" gridSize="10" guides="1" tooltips="1" connect="1" arrows="1" fold="1" page="1" pageScale="1" pageWidth="827" pageHeight="1169" math="0" shadow="0">
      <root>
        <mxCell id="0" />
        <mxCell id="1" parent="0" />
        <mxCell id="djjFZ4jI8jWfnVrqDTp0-1" value="Person" style="swimlane;fontStyle=0;childLayout=stackLayout;horizontal=1;startSize=26;fillColor=none;horizontalStack=0;resizeParent=1;resizeParentMax=0;resizeLast=0;collapsible=1;marginBottom=0;whiteSpace=wrap;html=1;" parent="1" vertex="1">
          <mxGeometry x="140" y="300" width="140" height="52" as="geometry" />
        </mxCell>
        <mxCell id="djjFZ4jI8jWfnVrqDTp0-2" value="+ field: type" style="text;strokeColor=none;fillColor=none;align=left;verticalAlign=top;spacingLeft=4;spacingRight=4;overflow=hidden;rotatable=0;points=[[0,0.5],[1,0.5]];portConstraint=eastwest;whiteSpace=wrap;html=1;" parent="djjFZ4jI8jWfnVrqDTp0-1" vertex="1">
          <mxGeometry y="26" width="140" height="26" as="geometry" />
        </mxCell>
        <mxCell id="djjFZ4jI8jWfnVrqDTp0-13" style="edgeStyle=orthogonalEdgeStyle;rounded=0;orthogonalLoop=1;jettySize=auto;html=1;entryX=0;entryY=0.5;entryDx=0;entryDy=0;" parent="1" source="djjFZ4jI8jWfnVrqDTp0-5" target="djjFZ4jI8jWfnVrqDTp0-9" edge="1">
          <mxGeometry relative="1" as="geometry" />
        </mxCell>
        <mxCell id="djjFZ4jI8jWfnVrqDTp0-5" value="Organization" style="swimlane;fontStyle=0;childLayout=stackLayout;horizontal=1;startSize=26;fillColor=none;horizontalStack=0;resizeParent=1;resizeParentMax=0;resizeLast=0;collapsible=1;marginBottom=0;whiteSpace=wrap;html=1;" parent="1" vertex="1">
          <mxGeometry x="280" y="140" width="140" height="52" as="geometry" />
        </mxCell>
        <mxCell id="djjFZ4jI8jWfnVrqDTp0-6" value="+ field: type" style="text;strokeColor=none;fillColor=none;align=left;verticalAlign=top;spacingLeft=4;spacingRight=4;overflow=hidden;rotatable=0;points=[[0,0.5],[1,0.5]];portConstraint=eastwest;whiteSpace=wrap;html=1;" parent="djjFZ4jI8jWfnVrqDTp0-5" vertex="1">
          <mxGeometry y="26" width="140" height="26" as="geometry" />
        </mxCell>
        <mxCell id="djjFZ4jI8jWfnVrqDTp0-15" style="edgeStyle=orthogonalEdgeStyle;rounded=0;orthogonalLoop=1;jettySize=auto;html=1;entryX=-0.021;entryY=-0.192;entryDx=0;entryDy=0;entryPerimeter=0;" parent="djjFZ4jI8jWfnVrqDTp0-5" source="djjFZ4jI8jWfnVrqDTp0-5" target="djjFZ4jI8jWfnVrqDTp0-6" edge="1">
          <mxGeometry relative="1" as="geometry">
            <mxPoint x="30" y="120" as="targetPoint" />
            <Array as="points">
              <mxPoint x="70" y="72" />
              <mxPoint x="-20" y="72" />
              <mxPoint x="-20" y="21" />
            </Array>
          </mxGeometry>
        </mxCell>
        <mxCell id="djjFZ4jI8jWfnVrqDTp0-9" value="CategoryOrganization" style="swimlane;fontStyle=0;childLayout=stackLayout;horizontal=1;startSize=26;fillColor=none;horizontalStack=0;resizeParent=1;resizeParentMax=0;resizeLast=0;collapsible=1;marginBottom=0;whiteSpace=wrap;html=1;" parent="1" vertex="1">
          <mxGeometry x="490" y="210" width="140" height="52" as="geometry" />
        </mxCell>
        <mxCell id="djjFZ4jI8jWfnVrqDTp0-10" value="+ field: type" style="text;strokeColor=none;fillColor=none;align=left;verticalAlign=top;spacingLeft=4;spacingRight=4;overflow=hidden;rotatable=0;points=[[0,0.5],[1,0.5]];portConstraint=eastwest;whiteSpace=wrap;html=1;" parent="djjFZ4jI8jWfnVrqDTp0-9" vertex="1">
          <mxGeometry y="26" width="140" height="26" as="geometry" />
        </mxCell>
        <mxCell id="djjFZ4jI8jWfnVrqDTp0-11" value="Category" style="swimlane;fontStyle=0;childLayout=stackLayout;horizontal=1;startSize=26;fillColor=none;horizontalStack=0;resizeParent=1;resizeParentMax=0;resizeLast=0;collapsible=1;marginBottom=0;whiteSpace=wrap;html=1;" parent="1" vertex="1">
          <mxGeometry x="670" y="140" width="140" height="52" as="geometry" />
        </mxCell>
        <mxCell id="djjFZ4jI8jWfnVrqDTp0-12" value="+ field: type" style="text;strokeColor=none;fillColor=none;align=left;verticalAlign=top;spacingLeft=4;spacingRight=4;overflow=hidden;rotatable=0;points=[[0,0.5],[1,0.5]];portConstraint=eastwest;whiteSpace=wrap;html=1;" parent="djjFZ4jI8jWfnVrqDTp0-11" vertex="1">
          <mxGeometry y="26" width="140" height="26" as="geometry" />
        </mxCell>
        <mxCell id="djjFZ4jI8jWfnVrqDTp0-14" style="edgeStyle=orthogonalEdgeStyle;rounded=0;orthogonalLoop=1;jettySize=auto;html=1;entryX=1.029;entryY=0.154;entryDx=0;entryDy=0;entryPerimeter=0;" parent="1" source="djjFZ4jI8jWfnVrqDTp0-11" target="djjFZ4jI8jWfnVrqDTp0-10" edge="1">
          <mxGeometry relative="1" as="geometry" />
        </mxCell>
      </root>
    </mxGraphModel>
  </diagram>
  <diagram id="vTi-G79DSDbQBjkH70hj" name="Domotica">
    <mxGraphModel dx="1634" dy="972" grid="0" gridSize="10" guides="1" tooltips="1" connect="1" arrows="1" fold="1" page="1" pageScale="1" pageWidth="827" pageHeight="1169" math="0" shadow="0">
      <root>
        <mxCell id="0" />
        <mxCell id="1" parent="0" />
        <mxCell id="WGqEs6bV6_wIQdZQfPeG-48" value="" style="rounded=0;whiteSpace=wrap;html=1;fillColor=none;" vertex="1" parent="1">
          <mxGeometry x="1280" y="120" width="350" height="365" as="geometry" />
        </mxCell>
        <mxCell id="WGqEs6bV6_wIQdZQfPeG-19" value="" style="rounded=0;whiteSpace=wrap;html=1;fillColor=none;" vertex="1" parent="1">
          <mxGeometry x="855" y="150" width="285" height="145" as="geometry" />
        </mxCell>
        <mxCell id="WGqEs6bV6_wIQdZQfPeG-8" value="" style="rounded=0;whiteSpace=wrap;html=1;fillColor=none;" vertex="1" parent="1">
          <mxGeometry x="40" y="125" width="290" height="140" as="geometry" />
        </mxCell>
        <mxCell id="eAyhrzm5xPaionKx1wUY-1" value="" style="html=1;verticalLabelPosition=bottom;align=center;labelBackgroundColor=#ffffff;verticalAlign=top;strokeWidth=2;strokeColor=#0080F0;shadow=0;dashed=0;shape=mxgraph.ios7.icons.home;" parent="1" vertex="1">
          <mxGeometry x="55" y="155" width="60" height="60" as="geometry" />
        </mxCell>
        <mxCell id="eAyhrzm5xPaionKx1wUY-2" value="House" style="text;html=1;strokeColor=none;fillColor=none;align=center;verticalAlign=middle;whiteSpace=wrap;rounded=0;" parent="1" vertex="1">
          <mxGeometry x="55" y="215" width="60" height="30" as="geometry" />
        </mxCell>
        <mxCell id="WGqEs6bV6_wIQdZQfPeG-1" value="" style="rounded=0;whiteSpace=wrap;html=1;fillColor=none;" vertex="1" parent="1">
          <mxGeometry x="45" y="285" width="285" height="190" as="geometry" />
        </mxCell>
        <mxCell id="WGqEs6bV6_wIQdZQfPeG-2" value="" style="endArrow=classic;html=1;rounded=0;" edge="1" parent="1">
          <mxGeometry width="50" height="50" relative="1" as="geometry">
            <mxPoint x="370" y="299.5" as="sourcePoint" />
            <mxPoint x="430" y="299.5" as="targetPoint" />
          </mxGeometry>
        </mxCell>
        <mxCell id="WGqEs6bV6_wIQdZQfPeG-3" value="&lt;h1&gt;Config initial&lt;/h1&gt;&lt;p&gt;add house with customer&lt;/p&gt;" style="text;html=1;strokeColor=none;fillColor=none;spacing=5;spacingTop=-20;whiteSpace=wrap;overflow=hidden;rounded=0;" vertex="1" parent="1">
          <mxGeometry x="160" y="165" width="190" height="120" as="geometry" />
        </mxCell>
        <mxCell id="WGqEs6bV6_wIQdZQfPeG-4" value="" style="sketch=0;pointerEvents=1;shadow=0;dashed=0;html=1;strokeColor=none;labelPosition=center;verticalLabelPosition=bottom;verticalAlign=top;align=center;fillColor=#505050;shape=mxgraph.mscae.intune.intune_email_profiles" vertex="1" parent="1">
          <mxGeometry x="71" y="350" width="50" height="50" as="geometry" />
        </mxCell>
        <mxCell id="WGqEs6bV6_wIQdZQfPeG-5" value="" style="sketch=0;pointerEvents=1;shadow=0;dashed=0;html=1;strokeColor=none;labelPosition=center;verticalLabelPosition=bottom;verticalAlign=top;align=center;fillColor=#505050;shape=mxgraph.mscae.intune.intune_vpn_profiles" vertex="1" parent="1">
          <mxGeometry x="71" y="405" width="42" height="50" as="geometry" />
        </mxCell>
        <mxCell id="WGqEs6bV6_wIQdZQfPeG-6" value="" style="sketch=0;pointerEvents=1;shadow=0;dashed=0;html=1;strokeColor=none;labelPosition=center;verticalLabelPosition=bottom;verticalAlign=top;align=center;fillColor=#505050;shape=mxgraph.mscae.intune.intune_certificate_profiles" vertex="1" parent="1">
          <mxGeometry x="71" y="295" width="40" height="50" as="geometry" />
        </mxCell>
        <mxCell id="WGqEs6bV6_wIQdZQfPeG-7" value="&lt;h1&gt;Assign plan&lt;/h1&gt;&lt;p&gt;basic, medium, ultra secure, custom&lt;/p&gt;" style="text;html=1;strokeColor=none;fillColor=none;spacing=5;spacingTop=-20;whiteSpace=wrap;overflow=hidden;rounded=0;" vertex="1" parent="1">
          <mxGeometry x="145" y="320" width="165" height="120" as="geometry" />
        </mxCell>
        <mxCell id="WGqEs6bV6_wIQdZQfPeG-9" value="" style="rounded=0;whiteSpace=wrap;html=1;fillColor=none;" vertex="1" parent="1">
          <mxGeometry x="820" y="120" width="350" height="365" as="geometry" />
        </mxCell>
        <mxCell id="WGqEs6bV6_wIQdZQfPeG-13" value="&lt;h1&gt;Installation&lt;/h1&gt;&lt;p&gt;Worker should make Fisical ioti device &lt;b&gt;instalation &lt;/b&gt;, &lt;b&gt;enable &lt;/b&gt;by code and define initial &lt;b&gt;configuration in every room&lt;/b&gt;&lt;/p&gt;" style="text;html=1;strokeColor=none;fillColor=none;spacing=5;spacingTop=-20;whiteSpace=wrap;overflow=hidden;rounded=0;" vertex="1" parent="1">
          <mxGeometry x="960" y="345" width="180" height="140" as="geometry" />
        </mxCell>
        <mxCell id="WGqEs6bV6_wIQdZQfPeG-14" value="" style="rounded=0;whiteSpace=wrap;html=1;" vertex="1" parent="1">
          <mxGeometry x="887.5" y="175" width="40" height="30" as="geometry" />
        </mxCell>
        <mxCell id="WGqEs6bV6_wIQdZQfPeG-15" value="" style="rounded=0;whiteSpace=wrap;html=1;" vertex="1" parent="1">
          <mxGeometry x="937.5" y="175" width="40" height="30" as="geometry" />
        </mxCell>
        <mxCell id="WGqEs6bV6_wIQdZQfPeG-16" value="" style="rounded=0;whiteSpace=wrap;html=1;" vertex="1" parent="1">
          <mxGeometry x="887.5" y="215" width="40" height="30" as="geometry" />
        </mxCell>
        <mxCell id="WGqEs6bV6_wIQdZQfPeG-17" value="" style="rounded=0;whiteSpace=wrap;html=1;" vertex="1" parent="1">
          <mxGeometry x="937.5" y="215" width="40" height="30" as="geometry" />
        </mxCell>
        <mxCell id="WGqEs6bV6_wIQdZQfPeG-18" value="rooms" style="text;html=1;strokeColor=none;fillColor=none;align=center;verticalAlign=middle;whiteSpace=wrap;rounded=0;" vertex="1" parent="1">
          <mxGeometry x="903.5" y="250" width="60" height="30" as="geometry" />
        </mxCell>
        <mxCell id="WGqEs6bV6_wIQdZQfPeG-21" value="+" style="text;html=1;strokeColor=none;fillColor=none;align=center;verticalAlign=middle;whiteSpace=wrap;rounded=0;" vertex="1" parent="1">
          <mxGeometry x="927.5" y="215" width="60" height="30" as="geometry" />
        </mxCell>
        <mxCell id="WGqEs6bV6_wIQdZQfPeG-22" value="&lt;h1&gt;Config rooms&lt;/h1&gt;&lt;p&gt;add bedrom, bathroom, kitchecn&lt;/p&gt;" style="text;html=1;strokeColor=none;fillColor=none;spacing=5;spacingTop=-20;whiteSpace=wrap;overflow=hidden;rounded=0;" vertex="1" parent="1">
          <mxGeometry x="990" y="172" width="120" height="110" as="geometry" />
        </mxCell>
        <mxCell id="WGqEs6bV6_wIQdZQfPeG-23" value="" style="rounded=0;whiteSpace=wrap;html=1;fillColor=none;" vertex="1" parent="1">
          <mxGeometry x="460" y="135" width="285" height="280" as="geometry" />
        </mxCell>
        <mxCell id="WGqEs6bV6_wIQdZQfPeG-30" value="&lt;h1&gt;&lt;font style=&quot;font-size: 14px;&quot;&gt;Check&amp;nbsp; IOT&#39;S&lt;/font&gt;&lt;/h1&gt;&lt;p&gt;Showing plan contain IOT&#39;s&amp;nbsp;&lt;/p&gt;" style="text;html=1;strokeColor=none;fillColor=none;spacing=5;spacingTop=-20;whiteSpace=wrap;overflow=hidden;rounded=0;" vertex="1" parent="1">
          <mxGeometry x="607.5" y="152.5" width="120" height="112.5" as="geometry" />
        </mxCell>
        <mxCell id="WGqEs6bV6_wIQdZQfPeG-31" value="" style="rounded=0;whiteSpace=wrap;html=1;" vertex="1" parent="1">
          <mxGeometry x="477.5" y="162" width="120" height="130" as="geometry" />
        </mxCell>
        <mxCell id="WGqEs6bV6_wIQdZQfPeG-32" value="device" style="text;html=1;strokeColor=none;fillColor=none;align=center;verticalAlign=middle;whiteSpace=wrap;rounded=0;" vertex="1" parent="1">
          <mxGeometry x="507.5" y="137" width="60" height="30" as="geometry" />
        </mxCell>
        <mxCell id="WGqEs6bV6_wIQdZQfPeG-34" value="Door Lock" style="sketch=0;outlineConnect=0;fontColor=#232F3E;gradientColor=none;strokeColor=#232F3E;fillColor=#ffffff;dashed=0;verticalLabelPosition=bottom;verticalAlign=top;align=center;html=1;fontSize=12;fontStyle=0;aspect=fixed;shape=mxgraph.aws4.resourceIcon;resIcon=mxgraph.aws4.door_lock;" vertex="1" parent="1">
          <mxGeometry x="487.5" y="232" width="40" height="40" as="geometry" />
        </mxCell>
        <mxCell id="WGqEs6bV6_wIQdZQfPeG-35" value="Coffee Pot" style="sketch=0;outlineConnect=0;fontColor=#232F3E;gradientColor=none;strokeColor=#232F3E;fillColor=#ffffff;dashed=0;verticalLabelPosition=bottom;verticalAlign=top;align=center;html=1;fontSize=12;fontStyle=0;aspect=fixed;shape=mxgraph.aws4.resourceIcon;resIcon=mxgraph.aws4.coffee_pot;" vertex="1" parent="1">
          <mxGeometry x="487.5" y="167" width="40" height="40" as="geometry" />
        </mxCell>
        <mxCell id="WGqEs6bV6_wIQdZQfPeG-36" value="Lightbulb" style="sketch=0;outlineConnect=0;fontColor=#232F3E;gradientColor=none;strokeColor=#232F3E;fillColor=#ffffff;dashed=0;verticalLabelPosition=bottom;verticalAlign=top;align=center;html=1;fontSize=12;fontStyle=0;aspect=fixed;shape=mxgraph.aws4.resourceIcon;resIcon=mxgraph.aws4.lightbulb;" vertex="1" parent="1">
          <mxGeometry x="550" y="167" width="40" height="40" as="geometry" />
        </mxCell>
        <mxCell id="WGqEs6bV6_wIQdZQfPeG-37" value="Generic" style="sketch=0;outlineConnect=0;fontColor=#232F3E;gradientColor=none;strokeColor=#232F3E;fillColor=#ffffff;dashed=0;verticalLabelPosition=bottom;verticalAlign=top;align=center;html=1;fontSize=12;fontStyle=0;aspect=fixed;shape=mxgraph.aws4.resourceIcon;resIcon=mxgraph.aws4.generic;" vertex="1" parent="1">
          <mxGeometry x="550" y="232" width="40" height="40" as="geometry" />
        </mxCell>
        <mxCell id="WGqEs6bV6_wIQdZQfPeG-43" value="" style="shape=image;html=1;verticalAlign=top;verticalLabelPosition=bottom;labelBackgroundColor=#ffffff;imageAspect=0;aspect=fixed;image=https://cdn0.iconfinder.com/data/icons/construction-2-21/512/construction-industry-building-38-128.png" vertex="1" parent="1">
          <mxGeometry x="878.88" y="415" width="40" height="40" as="geometry" />
        </mxCell>
        <mxCell id="WGqEs6bV6_wIQdZQfPeG-46" value="&lt;h1&gt;&lt;font style=&quot;font-size: 14px;&quot;&gt;Buy IOT&#39;S (optional)&lt;/font&gt;&lt;/h1&gt;&lt;p&gt;In this case customer can enable other device from plan&amp;nbsp; &amp;nbsp;buying special iot device if it isnt in the currently plan&lt;br&gt;&lt;/p&gt;" style="text;html=1;strokeColor=none;fillColor=none;spacing=5;spacingTop=-20;whiteSpace=wrap;overflow=hidden;rounded=0;" vertex="1" parent="1">
          <mxGeometry x="486.25" y="302.5" width="232.5" height="112.5" as="geometry" />
        </mxCell>
        <mxCell id="WGqEs6bV6_wIQdZQfPeG-49" value="&lt;h1&gt;Finish instalation&amp;nbsp;&lt;/h1&gt;&lt;div&gt;&lt;br&gt;&lt;/div&gt;&lt;div&gt;&lt;br&gt;&lt;/div&gt;&lt;div&gt;- worker application emit all device was installed&lt;br&gt;&lt;/div&gt;&lt;div&gt;&lt;br&gt;&lt;/div&gt;&lt;div&gt;- client can show all devices actives, selecte profiles or change any configuration&lt;/div&gt;&lt;div&gt;&lt;br&gt;&lt;/div&gt;&lt;div&gt;- plan mak like enabled and&amp;nbsp;&lt;span style=&quot;background-color: initial;&quot;&gt;send emails active service&amp;nbsp;&lt;/span&gt;&lt;/div&gt;" style="text;html=1;strokeColor=none;fillColor=none;spacing=5;spacingTop=-20;whiteSpace=wrap;overflow=hidden;rounded=0;" vertex="1" parent="1">
          <mxGeometry x="1320" y="157" width="180" height="268" as="geometry" />
        </mxCell>
        <mxCell id="WGqEs6bV6_wIQdZQfPeG-57" value="" style="image;html=1;image=img/lib/clip_art/people/Construction_Worker_Man_128x128.png" vertex="1" parent="1">
          <mxGeometry x="1477" y="152.5" width="80" height="80" as="geometry" />
        </mxCell>
        <mxCell id="WGqEs6bV6_wIQdZQfPeG-59" value="" style="shape=image;html=1;verticalAlign=top;verticalLabelPosition=bottom;labelBackgroundColor=#ffffff;imageAspect=0;aspect=fixed;image=https://cdn2.iconfinder.com/data/icons/wanpix-construction-worker-1/64/Artboard_1-128.png" vertex="1" parent="1">
          <mxGeometry x="855" y="331.13" width="87.75" height="87.75" as="geometry" />
        </mxCell>
        <mxCell id="WGqEs6bV6_wIQdZQfPeG-60" value="" style="sketch=0;html=1;aspect=fixed;strokeColor=none;shadow=0;fillColor=#3B8DF1;verticalAlign=top;labelPosition=center;verticalLabelPosition=bottom;shape=mxgraph.gcp2.check_scale" vertex="1" parent="1">
          <mxGeometry x="1537" y="212.5" width="46.67" height="35" as="geometry" />
        </mxCell>
        <mxCell id="WGqEs6bV6_wIQdZQfPeG-62" value="" style="endArrow=classic;html=1;rounded=0;" edge="1" parent="1">
          <mxGeometry width="50" height="50" relative="1" as="geometry">
            <mxPoint x="760" y="290.5" as="sourcePoint" />
            <mxPoint x="800" y="291" as="targetPoint" />
          </mxGeometry>
        </mxCell>
        <mxCell id="WGqEs6bV6_wIQdZQfPeG-63" value="" style="endArrow=classic;html=1;rounded=0;" edge="1" parent="1">
          <mxGeometry width="50" height="50" relative="1" as="geometry">
            <mxPoint x="1210" y="290.5" as="sourcePoint" />
            <mxPoint x="1250" y="291" as="targetPoint" />
          </mxGeometry>
        </mxCell>
      </root>
    </mxGraphModel>
  </diagram>
  <diagram id="QhkqUt9qe_MSFVw7YytL" name="factory">
    <mxGraphModel dx="878" dy="486" grid="1" gridSize="10" guides="1" tooltips="1" connect="1" arrows="1" fold="1" page="1" pageScale="1" pageWidth="827" pageHeight="1169" math="0" shadow="0">
      <root>
        <mxCell id="0" />
        <mxCell id="1" parent="0" />
        <mxCell id="aFuGDgkuwJMz96LNMTOw-1" value="" style="image;aspect=fixed;html=1;points=[];align=center;fontSize=12;image=img/lib/azure2/databases/Data_Factory.svg;" vertex="1" parent="1">
          <mxGeometry x="351" y="90" width="68" height="68" as="geometry" />
        </mxCell>
        <mxCell id="aFuGDgkuwJMz96LNMTOw-2" value="" style="rounded=0;whiteSpace=wrap;html=1;" vertex="1" parent="1">
          <mxGeometry x="340" y="260" width="40" height="30" as="geometry" />
        </mxCell>
        <mxCell id="aFuGDgkuwJMz96LNMTOw-3" value="" style="rounded=0;whiteSpace=wrap;html=1;" vertex="1" parent="1">
          <mxGeometry x="390" y="260" width="40" height="30" as="geometry" />
        </mxCell>
        <mxCell id="aFuGDgkuwJMz96LNMTOw-4" value="" style="rounded=0;whiteSpace=wrap;html=1;" vertex="1" parent="1">
          <mxGeometry x="340" y="300" width="40" height="30" as="geometry" />
        </mxCell>
        <mxCell id="aFuGDgkuwJMz96LNMTOw-5" value="" style="rounded=0;whiteSpace=wrap;html=1;" vertex="1" parent="1">
          <mxGeometry x="390" y="300" width="40" height="30" as="geometry" />
        </mxCell>
        <mxCell id="aFuGDgkuwJMz96LNMTOw-6" value="environments" style="text;html=1;strokeColor=none;fillColor=none;align=center;verticalAlign=middle;whiteSpace=wrap;rounded=0;" vertex="1" parent="1">
          <mxGeometry x="356" y="340" width="60" height="30" as="geometry" />
        </mxCell>
      </root>
    </mxGraphModel>
  </diagram>
</mxfile>
